<?xml version="1.0" encoding="UTF-8"?>
<!DOCTYPE svg PUBLIC "-//W3C//DTD SVG 1.1//EN" "http://www.w3.org/Graphics/SVG/1.1/DTD/svg11.dtd">
<!-- Creator: CorelDRAW 2017 -->
<svg xmlns="http://www.w3.org/2000/svg" xml:space="preserve" width="110mm" height="110mm" version="1.1" style="shape-rendering:geometricPrecision; text-rendering:geometricPrecision; image-rendering:optimizeQuality; fill-rule:evenodd; clip-rule:evenodd"
viewBox="0 0 11000 11000"
 xmlns:xlink="http://www.w3.org/1999/xlink">
 <defs>
  <style type="text/css">
   <![CDATA[
    .fil2 {fill:#4F5E99}
    .fil0 {fill:#70C1F9}
    .fil4 {fill:#D2D9EC}
    .fil5 {fill:#EBEDFC}
    .fil1 {fill:#ED524E}
    .fil8 {fill:#F28683}
    .fil7 {fill:#F4AD04}
    .fil9 {fill:#F8B818}
    .fil3 {fill:#FCC72E}
    .fil6 {fill:#FED66A}
   ]]>
  </style>
 </defs>
 <g id="Layer_x0020_1">
  <metadata id="CorelCorpID_0Corel-Layer"/>
  <g id="_1533971399280">
   <polygon class="fil0" points="3622,7952 3621,8548 3613,10485 7372,10482 7375,9170 7378,8572 7375,7140 3626,7139 "/>
   <path class="fil1" d="M3613 10485l8 -1937c-221,-51 -1208,-13 -1520,-13 -493,0 -1024,-19 -1513,5 15,290 -32,1791 21,1910 99,80 574,36 736,36 722,0 1575,19 2267,-1z"/>
   <path class="fil2" d="M4498 5488c0,-238 45,-269 277,-269l1490 0c178,0 233,47 236,227 16,968 15,831 -501,831 -293,0 -585,0 -878,0 -716,0 -624,116 -624,-789zm-872 1651l3749 1 176 -19c15,-54 30,-444 7,-519 -36,-113 -624,-66 -731,-45 -1,-302 -5,-603 -5,-906 0,-321 81,-627 -221,-703l-2200 0c-303,75 -222,382 -222,703 0,293 -6,620 -4,893 -202,21 -571,-25 -730,20 -19,107 -24,460 4,562l177 13z"/>
   <path class="fil3" d="M5682 966c-315,45 -266,-7 -421,-431l297 12c35,66 132,351 124,419zm-2016 -55c40,70 44,46 109,81l5 285c-161,11 -337,4 -495,4 -82,0 -163,0 -245,-1 -70,-1 -170,-13 -225,31l985 3 14 216 -714 0c-118,17 -53,-5 -89,45 140,-9 714,-28 804,14l140 799c32,123 54,249 96,374 38,114 94,253 120,359 -41,26 -25,18 -76,14 4,4 10,5 13,12 14,46 82,3 144,132 29,60 55,136 103,177 -44,46 3,31 -81,30l30 20c4,2 11,6 15,9 4,2 11,5 15,7 134,68 86,116 309,343 95,96 309,285 453,288l147 22 -507 -1474 -79 -240 -238 -743c-74,-210 -196,-520 -231,-756l1178 -1c19,24 14,16 32,47l167 422 186 16 127 27c-33,-167 -147,-342 -145,-518l327 -3c2,51 62,184 83,250l605 1761c33,71 14,98 39,166 4,0 9,-6 10,-3 32,80 17,-7 21,-10 3,-2 11,-17 48,-45 80,-236 141,-415 205,-695 62,-271 81,-510 121,-799l781 -7 -6 120 42 -75c9,-23 9,-31 10,-38 -165,-104 -595,-17 -818,-46l6 -207 976 -12c-22,-19 -20,-27 -101,-34l-369 3c-158,0 -331,7 -487,-5l-2 -282c64,-35 67,-11 110,-82 -110,17 -73,28 -134,44 -75,20 -1056,7 -1126,3 -33,-105 -117,-297 -124,-413 254,-58 1018,2 1338,-11 -71,-58 -790,-30 -881,-30 -777,0 -1710,22 -2470,0l-180 6c-53,16 -13,-5 -47,24l309 11c24,123 128,291 123,415 -211,49 -415,-43 -477,-52z"/>
   <path class="fil3" d="M7372 10482c448,38 1061,3 1527,3 274,0 1342,42 1495,-31 38,-140 20,-1073 12,-1291l-3031 6 -3 1313z"/>
   <path class="fil4" d="M4793 5462l1419 5 -3 73 -1422 -6 6 -72zm-295 26c0,905 -92,789 624,789 293,0 585,0 878,0 516,0 518,137 501,-831 -3,-180 -58,-227 -236,-227l-1490 0c-233,0 -277,30 -277,269z"/>
   <path class="fil2" d="M7375 9170l3031 -6 112 -15c25,-98 25,-467 -2,-563 -157,-33 -2816,-1 -3139,-14l-3 598z"/>
   <path class="fil2" d="M588 8539c489,-23 1020,-5 1513,-5 311,0 1299,-38 1520,13l1 -595c-678,-27 -1647,-2 -2379,-2 -898,0 -770,-83 -775,355 -2,159 -41,224 120,233z"/>
   <path class="fil5" d="M4997 2114c278,-71 287,56 420,-231 33,-72 25,-88 94,-113 75,69 110,232 160,273 61,51 251,48 343,61 -13,124 -106,179 -230,258l33 369c-118,-8 -242,-133 -324,-129 -80,4 -187,121 -309,128 -44,-293 152,-240 -96,-474 -52,-49 -82,-54 -92,-142zm-339 347l79 240c118,77 58,166 259,280 97,55 178,107 292,133 321,76 546,-18 762,-177 57,-45 122,-117 162,-190 285,-481 94,-1009 -286,-1205 -36,-19 -49,-18 -86,-35l-87 -61 -186 -16c-335,-4 -503,81 -697,272 -60,60 -153,201 -184,308 -56,191 -32,240 -28,450z"/>
   <path class="fil6" d="M5097 4153l115 61 -3 479c19,-21 26,-7 31,-102l1 -383c210,22 310,16 518,2 5,145 -24,420 33,483l-7 -482c129,-68 215,-10 543,-295 84,-73 104,-47 147,-163 -70,45 -38,40 -106,69l-168 -520c-57,-153 -39,-103 -118,-221 -25,-37 -12,7 -28,-67 -6,-28 -3,-50 -4,-78 -215,159 -441,253 -762,177 -114,-27 -195,-79 -292,-133 -201,-113 -141,-203 -259,-280l507 1474 -147 -22z"/>
   <path class="fil7" d="M4273 3486c84,0 37,15 81,-30 -48,-41 -74,-117 -103,-177 -62,-129 -130,-86 -144,-132 -2,-8 -9,-8 -13,-12 -110,-85 -255,-134 -391,-250 -123,-106 -220,-194 -328,-345 -279,-387 -272,-540 -366,-964 37,-50 -28,-28 89,-45l714 0 -14 -216 -985 -3c-196,28 -30,630 10,759 140,455 432,847 805,1114 127,91 482,299 644,301z"/>
   <path class="fil7" d="M7969 1690c-40,322 -181,630 -344,850 -203,274 -374,383 -652,556 -54,71 -52,62 -153,66 -14,112 -109,250 -150,335l144 -38c313,-27 853,-481 1056,-775 130,-188 223,-363 304,-618 34,-108 149,-582 80,-711 -39,-73 -27,-37 -69,-43l-976 12 -6 207c224,28 653,-58 818,46 -1,7 -1,15 -10,38l-42 75z"/>
   <path class="fil6" d="M4658 2460c-5,-210 -28,-259 28,-450 31,-107 123,-248 184,-308 193,-191 361,-276 697,-272l-167 -422c-18,-31 -13,-23 -32,-47l-1178 1c35,236 157,546 231,756l238 743z"/>
   <path class="fil6" d="M5753 1446l87 61c37,16 50,16 86,35 380,196 570,724 286,1205 70,-70 -8,-33 115,-55 28,171 155,574 221,759 55,156 5,149 -42,266 106,-61 72,-90 123,-154 68,-86 100,-11 185,-105l-144 38c41,-85 136,-223 150,-335 101,-3 99,5 153,-66 -45,12 -51,15 -95,29l-10 -55c-37,28 -45,42 -48,45 -4,3 11,90 -21,10 -1,-3 -7,3 -10,3 -26,-68 -7,-95 -39,-166l-605 -1761c-21,-65 -81,-199 -83,-250l-327 3c-2,176 112,351 145,518l-127 -27z"/>
   <path class="fil7" d="M7335 913c18,-48 14,-133 14,-203 0,-26 0,-98 -6,-119 -24,-86 -12,-44 -53,-55 -320,13 -1085,-47 -1338,11 6,116 91,308 124,413 69,4 1050,16 1126,-3 61,-16 24,-27 134,-44zm-1653 53c8,-68 -89,-353 -124,-419l-297 -12c155,424 106,476 421,431zm-2016 -55c62,9 267,101 477,52 4,-124 -99,-292 -123,-415l-309 -11c-68,8 -59,58 -59,152 -1,70 -4,177 14,222z"/>
   <path class="fil8" d="M4997 2114c10,88 40,93 92,142 248,234 52,180 96,474 121,-7 229,-124 309,-128 82,-4 206,122 324,129l-33 -369c123,-79 216,-134 230,-258 -92,-14 -282,-10 -343,-61 -49,-41 -85,-204 -160,-273 -69,25 -61,42 -94,113 -132,287 -141,160 -420,231z"/>
   <path class="fil9" d="M5208 4693c-39,95 -79,-35 -122,163l-25 91 -661 2 2200 0 -661 0c-3,-8 -6,-23 -7,-21l-40 -151c-53,-86 -58,-4 -100,-85 -56,-63 -28,-338 -33,-483 -208,14 -308,20 -518,-2l-1 383c-5,95 -13,81 -31,102z"/>
   <path class="fil3" d="M6211 2747c-40,73 -105,145 -162,190 1,28 -2,50 4,78 15,74 3,30 28,67 79,118 61,68 118,221l168 520c68,-30 36,-24 106,-69 73,-20 16,5 32,-36 47,-118 97,-111 42,-266 -66,-185 -193,-588 -221,-759 -124,23 -45,-15 -115,55z"/>
   <polygon class="fil2" points="4786,5533 6208,5540 6212,5467 4793,5462 "/>
  </g>
 </g>
</svg>
